<svg xmlns="http://www.w3.org/2000/svg" xml:space="preserve" id="apple-reminders" x="0" y="0" version="1.1" viewBox="0 0 100 100">
  <path d="M80.4 67.3c-3.1 0-5.6 2.5-5.6 5.6 0 3.1 2.5 5.6 5.6 5.6 3.1 0 5.6-2.5 5.6-5.6 0-3.1-2.5-5.6-5.6-5.6zm0 10.5c-2.7 0-4.9-2.2-4.9-4.9s2.2-4.9 4.9-4.9 4.9 2.2 4.9 4.9-2.2 4.9-4.9 4.9zM80.4 24.5c-3.1 0-5.6 2.5-5.6 5.6 0 3.1 2.5 5.6 5.6 5.6 3.1 0 5.6-2.5 5.6-5.6 0-3.1-2.5-5.6-5.6-5.6zm0 10.5c-2.7 0-4.9-2.2-4.9-4.9s2.2-4.9 4.9-4.9 4.9 2.2 4.9 4.9-2.2 4.9-4.9 4.9zM80.4 45.9c-3.1 0-5.6 2.5-5.6 5.6s2.5 5.6 5.6 5.6c3.1 0 5.6-2.5 5.6-5.6s-2.5-5.6-5.6-5.6zm0 10.5c-2.7 0-4.9-2.2-4.9-4.9s2.2-4.9 4.9-4.9 4.9 2.2 4.9 4.9-2.2 4.9-4.9 4.9z" style="fill:#fff"></path>
  <path d="M93.5 18c-1.9-5.3-6.1-9.5-11.4-11.4C77.2 5 72.7 5 63.6 5H36.4c-9 0-13.6 0-18.4 1.5C13 8.3 9 12.1 7 17h59.5v.8H6.6v.1C5 22.8 5 27.3 5 36.4v3.1h61.5v.7H5v20.3h61.5v.7H5v2.4c0 9 0 13.6 1.5 18.4.1.3.3.7.4 1h59.6v.8H7.3c2.1 4.4 6 7.9 10.6 9.6C22.8 95 27.3 95 36.4 95h27.2c9 0 13.6 0 18.4-1.5 5.3-1.9 9.5-6.1 11.4-11.4C95 77.2 95 72.7 95 63.6V36.4c0-9 0-13.6-1.5-18.4zM80.4 79.3c-3.5 0-6.4-2.9-6.4-6.4s2.9-6.4 6.4-6.4 6.4 2.9 6.4 6.4-2.9 6.4-6.4 6.4zm0-21.4c-3.5 0-6.4-2.9-6.4-6.4s2.9-6.4 6.4-6.4 6.4 2.9 6.4 6.4-2.9 6.4-6.4 6.4zm0-21.4c-3.5 0-6.4-2.9-6.4-6.4s2.9-6.4 6.4-6.4 6.4 2.9 6.4 6.4-2.9 6.4-6.4 6.4z" style="fill:#fff"></path>
  <path d="M66.5 83.8V83H6.9c.1.3.2.5.3.8h59.3zM66.5 61.2v-.7H5v.7h61.1zM66.5 40.2v-.7H5v.7h61.1zM66.5 17.8V17H7c-.1.3-.2.5-.3.8h59.8z" style="fill:#b7b7b7"></path>
  <circle cx="80.4" cy="30.1" r="4.9" style="fill:#ff9500" transform="rotate(-45.001 80.4 30.101)"></circle>
  <path d="M80.4 23.7c-3.5 0-6.4 2.9-6.4 6.4s2.9 6.4 6.4 6.4 6.4-2.9 6.4-6.4-2.9-6.4-6.4-6.4zm0 12c-3.1 0-5.6-2.5-5.6-5.6 0-3.1 2.5-5.6 5.6-5.6 3.1 0 5.6 2.5 5.6 5.6 0 3.1-2.5 5.6-5.6 5.6z" style="fill:#ff9500"></path>
  <circle cx="80.4" cy="51.5" r="4.9" style="fill:#1badf8" transform="rotate(-67.5 80.399 51.499)"></circle>
  <path d="M80.4 45.1c-3.5 0-6.4 2.9-6.4 6.4s2.9 6.4 6.4 6.4 6.4-2.9 6.4-6.4-2.9-6.4-6.4-6.4zm0 12c-3.1 0-5.6-2.5-5.6-5.6s2.5-5.6 5.6-5.6c3.1 0 5.6 2.5 5.6 5.6s-2.5 5.6-5.6 5.6z" style="fill:#1badf8"></path>
  <path d="M80.4 66.5c-3.5 0-6.4 2.9-6.4 6.4s2.9 6.4 6.4 6.4 6.4-2.9 6.4-6.4-2.9-6.4-6.4-6.4zm0 12c-3.1 0-5.6-2.5-5.6-5.6 0-3.1 2.5-5.6 5.6-5.6 3.1 0 5.6 2.5 5.6 5.6 0 3.1-2.5 5.6-5.6 5.6z" style="fill:#63da38"></path>
  <circle cx="80.4" cy="72.9" r="4.9" style="fill:#63da38" transform="rotate(-13.286 80.38 72.887)"></circle>
</svg>
